/* XPM */
static char * cpk_xpm[] = {
"30 30 218 2",
"  	c None",
". 	c #FFFFFF",
"+ 	c #333334",
"@ 	c #4F4E4E",
"# 	c #8F8F8B",
"$ 	c #747270",
"% 	c #939392",
"& 	c #B2B2B2",
"* 	c #A6A5A2",
"= 	c #675F5B",
"- 	c #888884",
"; 	c #999999",
"> 	c #7A7773",
", 	c #818181",
"' 	c #989893",
") 	c #797775",
"! 	c #524C49",
"~ 	c #6E6E6D",
"{ 	c #72726F",
"] 	c #5A5855",
"^ 	c #616060",
"/ 	c #606060",
"( 	c #535150",
"_ 	c #544D4A",
": 	c #7F7F7B",
"< 	c #625E5D",
"[ 	c #3C3E42",
"} 	c #3C3C3C",
"| 	c #393735",
"1 	c #43474F",
"2 	c #939393",
"3 	c #6E6B6A",
"4 	c #333333",
"5 	c #888887",
"6 	c #605D5A",
"7 	c #413C39",
"8 	c #919190",
"9 	c #91908E",
"0 	c #686360",
"a 	c #9B9B9A",
"b 	c #BDBDBD",
"c 	c #9D9996",
"d 	c #716864",
"e 	c #3A3A3A",
"f 	c #646361",
"g 	c #4F4F4F",
"h 	c #5E5E5C",
"i 	c #4A4645",
"j 	c #3D3733",
"k 	c #9B9B97",
"l 	c #999892",
"m 	c #635F5B",
"n 	c #959594",
"o 	c #B2B2AF",
"p 	c #888481",
"q 	c #625956",
"r 	c #452F30",
"s 	c #BBAA9F",
"t 	c #835855",
"u 	c #656562",
"v 	c #605E5B",
"w 	c #403D3B",
"x 	c #2E2E2D",
"y 	c #312E2D",
"z 	c #5D5E5E",
"A 	c #8C8C8C",
"B 	c #66625F",
"C 	c #626262",
"D 	c #565554",
"E 	c #46423F",
"F 	c #0E0E0D",
"G 	c #8A8987",
"H 	c #666666",
"I 	c #686869",
"J 	c #565252",
"K 	c #574F4D",
"L 	c #755252",
"M 	c #7D5C59",
"N 	c #5D3D3B",
"O 	c #414141",
"P 	c #3A3939",
"Q 	c #2F2C2A",
"R 	c #7B7A75",
"S 	c #54514F",
"T 	c #3A3D41",
"U 	c #383736",
"V 	c #44403D",
"W 	c #90908E",
"X 	c #A5A5A6",
"Y 	c #787472",
"Z 	c #3F4040",
"` 	c #474442",
" .	c #3F2A2A",
"..	c #443332",
"+.	c #545353",
"@.	c #292726",
"#.	c #2D2C2D",
"$.	c #48494A",
"%.	c #4A4A4A",
"&.	c #3C3937",
"*.	c #3E3936",
"=.	c #80807F",
"-.	c #8A8A85",
";.	c #65615E",
">.	c #49423E",
",.	c #433E3A",
"'.	c #B8B8B4",
").	c #BAB9B9",
"!.	c #2B2725",
"~.	c #7B7B77",
"{.	c #6C6B68",
"].	c #484341",
"^.	c #7C7C7B",
"/.	c #5D5856",
"(.	c #4F5050",
"_.	c #4A4A49",
":.	c #413D3C",
"<.	c #403F3E",
"[.	c #2C2826",
"}.	c #686868",
"|.	c #5A5958",
"1.	c #5E5F5D",
"2.	c #4E4C4B",
"3.	c #61615F",
"4.	c #504E4D",
"5.	c #393533",
"6.	c #8A8A87",
"7.	c #969696",
"8.	c #645F5C",
"9.	c #201D1B",
"0.	c #8A8A8A",
"a.	c #6C6765",
"b.	c #25272B",
"c.	c #313132",
"d.	c #4E4B49",
"e.	c #3A3B3B",
"f.	c #333231",
"g.	c #332F2D",
"h.	c #6A6B6A",
"i.	c #5D5B5A",
"j.	c #787876",
"k.	c #83827D",
"l.	c #54504D",
"m.	c #453E3A",
"n.	c #969693",
"o.	c #AEAEAE",
"p.	c #827E7A",
"q.	c #322D2B",
"r.	c #3B3B3B",
"s.	c #312F2E",
"t.	c #7B7B7A",
"u.	c #404041",
"v.	c #424242",
"w.	c #7B7A7B",
"x.	c #999997",
"y.	c #6A6563",
"z.	c #868685",
"A.	c #A0A099",
"B.	c #6B6664",
"C.	c #534D48",
"D.	c #2E2E2E",
"E.	c #4C4A49",
"F.	c #232324",
"G.	c #565656",
"H.	c #464342",
"I.	c #393330",
"J.	c #353230",
"K.	c #898986",
"L.	c #9C9C9A",
"M.	c #5D5D5C",
"N.	c #5F5F5F",
"O.	c #4B4846",
"P.	c #22201F",
"Q.	c #737373",
"R.	c #55514F",
"S.	c #383330",
"T.	c #575757",
"U.	c #2F2D2C",
"V.	c #2D2C2C",
"W.	c #252322",
"X.	c #646464",
"Y.	c #6B6B69",
"Z.	c #4F4A49",
"`.	c #332E2C",
" +	c #3D3E41",
".+	c #242323",
"++	c #382727",
"@+	c #5C413F",
"#+	c #331F1C",
"$+	c #5E5E5B",
"%+	c #352F2D",
"&+	c #7D7D7B",
"*+	c #8C8C8D",
"=+	c #6B6865",
"-+	c #2D2927",
";+	c #373838",
">+	c #2D2B2B",
",+	c #1A1212",
"'+	c #3E2929",
")+	c #3A2524",
"!+	c #373737",
"~+	c #2D2A2A",
"{+	c #5D5D5B",
"]+	c #5E5D5C",
"^+	c #787875",
"/+	c #8E8E89",
"(+	c #5F5C59",
"_+	c #453E3B",
":+	c #737372",
"<+	c #545453",
"[+	c #464241",
"}+	c #242120",
"|+	c #5B5B59",
"1+	c #4F4F4C",
"2+	c #36312F",
"3+	c #161616",
"4+	c #2F2E2E",
"5+	c #292626",
". . . . . . . . . . . . . . . . . . . . . . . . . . . . . . ",
". . . . . . . . . . . . . . . . . . . . . . . . . . . . . . ",
". . . . . . . . . . . . . . . . . . . . . . . . . . . . . . ",
". . . . . . . . . . . . . . . . . . . . . . . . . . . . . . ",
". . . . . . . . . . . . . . . . . . . . . + @ . . . . . . . ",
". . . . . . . . . . . . . . . . . . # $ % & * = . . . . . . ",
". . . . . . . . . . . . . . . . . - ; > , ' ) ! . . . . . . ",
". . . . . . . . . . . . . . . . . ~ { ] ^ / ( _ . . . . . . ",
". . . . . . . . . . . : < . . . . [ } | . 1 2 3 . . . . . . ",
". . . . . . . . . . 4 5 6 7 . . 8 9 0 . . a b c d . . . . . ",
". . . . . . . . e f g h i j . . k l m . . n o p q r s t . . ",
". . . . . . . . u v w x y z A B C D E F G H I J K L M N . . ",
". . . . . . . . O P Q . . H R S T U V W X Y Z ` . .  .... . ",
". . . . . . . . +.@.#.. . $.%.&.*.. . =.-.;.>.,.. . '.).!.. ",
". . . . . . . ~.{.].. . . ^./.. . . . (._.:.<.[.. . }.|.. . ",
". . . . . 1.2.3.4.5.. . 6.7.8.9.. . . 0.a.b.c.. . . . . . . ",
". . . . . }.d.e.f.g.h.i.j.k.l.m.. . n.o.p.q.. . . . . . . . ",
". . . . . r.s.[.. . t.6 u.v.&.w.x.y.z.A.B.C.. . . . . . . . ",
". . . . D.E.F.. . . G.H.I.J.. K.L.;.M.N.O.P.. . . . . . . . ",
". . . . Q.R.S.. . . T.U.V.W.. X.Y.Z.`. +.+. . . . . . . . . ",
". ++@+#+$+:.%+. &+*+=+-+. . . . ;+>+. . . . . . . . . . . . ",
". ,+'+)+!+~+{+]+^+/+(+_+. . . . . . . . . . . . . . . . . . ",
". . . . . . j.:+(.<+[+}+. . . . . . . . . . . . . . . . . . ",
". . . . . . |+1+2+. . . . . . . . . . . . . . . . . . . . . ",
". . . . . . 3+4+5+. . . . . . . . . . . . . . . . . . . . . ",
". . . . . . . . . . . . . . . . . . . . . . . . . . . . . . ",
". . . . . . . . . . . . . . . . . . . . . . . . . . . . . . ",
". . . . . . . . . . . . . . . . . . . . . . . . . . . . . . ",
". . . . . . . . . . . . . . . . . . . . . . . . . . . . . . ",
". . . . . . . . . . . . . . . . . . . . . . . . . . . . . . "};
