/* XPM */
static char * ms_xpm[] = {
"24 23 278 2",
"  	c #000000",
". 	c #6E6C76",
"+ 	c #9897A9",
"@ 	c #5D5B61",
"# 	c #9A9BAE",
"$ 	c #C3C3C5",
"% 	c #76769C",
"& 	c #ACADC2",
"* 	c #3E3E66",
"= 	c #7A7AB2",
"- 	c #787776",
"; 	c #BCAEAE",
"> 	c #BFB3B3",
", 	c #605656",
"' 	c #B27071",
") 	c #D3898B",
"! 	c #686564",
"~ 	c #D4D2D3",
"{ 	c #E1DFE5",
"] 	c #6666A2",
"^ 	c #74739B",
"/ 	c #B2A6A6",
"( 	c #C2B5B4",
"_ 	c #5D4A49",
": 	c #766A6A",
"< 	c #706A6A",
"[ 	c #D7C4C3",
"} 	c #FFFEFD",
"| 	c #CDA9A9",
"1 	c #DF918F",
"2 	c #FAAEAE",
"3 	c #F2BAB8",
"4 	c #D7A4A3",
"5 	c #F6E6E7",
"6 	c #D1D1D3",
"7 	c #7676C0",
"8 	c #66658D",
"9 	c #CDBBBB",
"0 	c #B6A6A7",
"a 	c #4A3E3E",
"b 	c #EBC4C3",
"c 	c #FEDADA",
"d 	c #1E0F0E",
"e 	c #BC7978",
"f 	c #010101",
"g 	c #B8807E",
"h 	c #F7E2E1",
"i 	c #F2F1F0",
"j 	c #D4D5EA",
"k 	c #CCC6C6",
"l 	c #878791",
"m 	c #5B5B67",
"n 	c #C29292",
"o 	c #CEB9B8",
"p 	c #91595A",
"q 	c #130B0B",
"r 	c #B47D7C",
"s 	c #9A4042",
"t 	c #7B3737",
"u 	c #B58281",
"v 	c #E3B0AF",
"w 	c #FFF7F5",
"x 	c #E2C2C3",
"y 	c #C8B0B0",
"z 	c #B9A8A5",
"A 	c #110F0F",
"B 	c #7D7FA5",
"C 	c #DFD2D1",
"D 	c #D3D3D3",
"E 	c #C49696",
"F 	c #D4B2B2",
"G 	c #7B5F5D",
"H 	c #E9B8B7",
"I 	c #EBA3A4",
"J 	c #DB8B89",
"K 	c #FCBEBE",
"L 	c #75494A",
"M 	c #E6AFAE",
"N 	c #D6B8B8",
"O 	c #3F3433",
"P 	c #D2D1E1",
"Q 	c #FFF9F9",
"R 	c #DECACB",
"S 	c #F1E5E5",
"T 	c #5B4F4F",
"U 	c #C89292",
"V 	c #C3A9AA",
"W 	c #FBDFDF",
"X 	c #E7ABA9",
"Y 	c #BE7C7E",
"Z 	c #BE7E7E",
"` 	c #FF9595",
" .	c #C34F4F",
"..	c #B68888",
"+.	c #6B3F40",
"@.	c #955959",
"#.	c #5C3B38",
"$.	c #E9B7B8",
"%.	c #FCF6F6",
"&.	c #473937",
"*.	c #F8F5F4",
"=.	c #E0E0E0",
"-.	c #744647",
";.	c #EAC8C8",
">.	c #E7D2D1",
",.	c #847878",
"'.	c #9C7574",
").	c #C09594",
"!.	c #AF8A89",
"~.	c #DC8E8E",
"{.	c #310F0F",
"].	c #100808",
"^.	c #B76765",
"/.	c #B68C8D",
"(.	c #E6C1C0",
"_.	c #9E4A4C",
":.	c #FCD6D6",
"<.	c #E1A8A5",
"[.	c #FBEBEC",
"}.	c #F6EAEA",
"|.	c #E3DDDD",
"1.	c #827272",
"2.	c #9D898A",
"3.	c #A88889",
"4.	c #947272",
"5.	c #D9D5D6",
"6.	c #201B1A",
"7.	c #E1BDBD",
"8.	c #987472",
"9.	c #A99797",
"0.	c #CEA4A5",
"a.	c #E94F4B",
"b.	c #890D0D",
"c.	c #EF8B8B",
"d.	c #632D2D",
"e.	c #AF6567",
"f.	c #B07D7C",
"g.	c #1F1313",
"h.	c #F8CECF",
"i.	c #90201E",
"j.	c #F7DAD7",
"k.	c #EFD7D7",
"l.	c #DECBCA",
"m.	c #C2B6B6",
"n.	c #AE9594",
"o.	c #A1A1A1",
"p.	c #E7D8D7",
"q.	c #D1C4C3",
"r.	c #B7AFAD",
"s.	c #050303",
"t.	c #FEF0F0",
"u.	c #FEBDBC",
"v.	c #C46262",
"w.	c #854B49",
"x.	c #6E3E40",
"y.	c #5B3433",
"z.	c #FEEBEA",
"A.	c #BD9C9B",
"B.	c #9A8282",
"C.	c #B7B7B7",
"D.	c #AF9B9C",
"E.	c #A99FA0",
"F.	c #6A5F5E",
"G.	c #0F0F0F",
"H.	c #826C6C",
"I.	c #FFB1B1",
"J.	c #EC8484",
"K.	c #E89A9A",
"L.	c #B07071",
"M.	c #6A4140",
"N.	c #AA8988",
"O.	c #958685",
"P.	c #7C7472",
"Q.	c #9A9A9A",
"R.	c #7C7CB0",
"S.	c #B0B0BA",
"T.	c #C2ADAC",
"U.	c #FABABA",
"V.	c #F29494",
"W.	c #DF2323",
"X.	c #F59B9B",
"Y.	c #492B2B",
"Z.	c #984446",
"`.	c #D8A0A1",
" +	c #BA9696",
".+	c #767688",
"++	c #1F1F25",
"@+	c #504F4E",
"#+	c #AB8281",
"$+	c #E9BEBD",
"%+	c #8F2B2B",
"&+	c #FA9494",
"*+	c #C15555",
"=+	c #3A2222",
"-+	c #FFFFFF",
";+	c #E6B7B4",
">+	c #B19192",
",+	c #6A6B70",
"'+	c #9899AE",
")+	c #8E8EB0",
"!+	c #66668C",
"~+	c #C4C5CA",
"{+	c #F2E2E2",
"]+	c #FFF1F1",
"^+	c #DFB3B4",
"/+	c #E2A09E",
"(+	c #FFE1E2",
"_+	c #F6A2A2",
":+	c #DEACAA",
"<+	c #996B6C",
"[+	c #A88F8E",
"}+	c #9D9EB1",
"|+	c #A2A3D0",
"1+	c #8081B8",
"2+	c #45457D",
"3+	c #C1C2D5",
"4+	c #E0DADA",
"5+	c #DAD1D0",
"6+	c #DBC6C5",
"7+	c #EECACA",
"8+	c #FEDAD8",
"9+	c #F8C6C8",
"0+	c #C8AFAE",
"a+	c #BFBFDB",
"b+	c #6A68AE",
"c+	c #9B9BE1",
"d+	c #A5A3E7",
"e+	c #494870",
"f+	c #8E8EAE",
"g+	c #424256",
"h+	c #B1B2D1",
"i+	c #F7DFDF",
"j+	c #FEFBFA",
"k+	c #C5ADAD",
"l+	c #ABA9BD",
"m+	c #0E0E16",
"n+	c #BBBDF5",
"o+	c #A5A3F3",
"p+	c #23236D",
"q+	c #6C6CD6",
"r+	c #0F0E20",
"s+	c #A2A0EE",
"t+	c #E6E6FE",
"u+	c #DDDDDF",
"v+	c #F8F8F8",
"w+	c #D6D6E2",
"x+	c #A49E9E",
"y+	c #898995",
"z+	c #C1C2DF",
"A+	c #2D2DCF",
"B+	c #C3C3FF",
"C+	c #ADABF7",
"D+	c #2B2D7F",
"E+	c #E7E6F4",
"F+	c #292A31",
"G+	c #DDDDE7",
"H+	c #A3A3AB",
"I+	c #FEFEFE",
"J+	c #C9C9EB",
"K+	c #9394C1",
"L+	c #8E8DB5",
"M+	c #5C5F9C",
"N+	c #1B1B31",
"O+	c #C7C8F9",
"P+	c #3E3D6D",
"Q+	c #ECEBEF",
"R+	c #BCBBC1",
"S+	c #ACACB4",
"T+	c #A1A0AE",
"U+	c #3E3E52",
"V+	c #29293B",
"W+	c #4E4E6C",
"X+	c #DCDBE9",
"Y+	c #AFAFB1",
"Z+	c #AAAAB6",
"`+	c #AAA9B7",
" @	c #88869E",
".@	c #E5E5E7",
"                                . +             ",
"                              @ # $ %           ",
"                                & * =           ",
"      - ; >         ,   ' ) ! ~ {     ] ^       ",
"      / ( _ : < [ } |   1 2 3     4 5 6 7 8     ",
"        9   0 a b c d   e f   g   h i j k   l m ",
"    n o p   q   r s   t u v w x y z A   B C   D ",
"    E F G H I J   K     L } M N h O     P Q R S ",
"  T U   V W X Y Z `  .  ..+.@.#.$.%.&.*.=.-.;.>.",
",.'.).        !.~.{.].^.  /.(._.:.<.[.}.|.  1.2.",
"3.4.5.6.7.8.9.0.a.b.c.d.e.f.g.h.i.j.k.l.m.      ",
"n.    o.p.q.r.s.t.u.  v.  w.x.y.z.$.A.B.        ",
"C.D.E.    F.G.H.    I.  J.K.L.  M.  N.          ",
"O.P.Q.  R.S.  T.  U.V.  W.X.  Y.Z.`. +          ",
"    .+    ++@+#+$+    %+&+*+  =+-+;+>+          ",
"  ,+'+  )+!+~+{+]+^+/+(+  _+:+  <+[+            ",
"    }+|+1+2+3+-+4+5+6+7+8+  9+0+                ",
"    a+b+c+d+e+f+g+  h+    i+j+k+                ",
"    l+m+n+o+p+q+r+s+t+  u+v+w+x+                ",
"    y+z+-+  A+B+  C+D+E+F+G+                    ",
"    H+I+J+K+L+M+N+O+P+  Q+R+                    ",
"      S+T+      U+V+W+X+-+Y+                    ",
"                Z+`+ @-+.@Q.                    "};
