/* XPM */
static char * ss_xpm[] = {
"24 24 308 2",
"  	c None",
". 	c #E2E230",
"+ 	c #E4E400",
"@ 	c #E5E503",
"# 	c #E3E385",
"$ 	c #E3E300",
"% 	c #E4E401",
"& 	c #E5E500",
"* 	c #E7E700",
"= 	c #E2E200",
"- 	c #AD7995",
"; 	c #AB5784",
"> 	c #B65086",
", 	c #BC4C87",
"' 	c #C04A89",
") 	c #C5498B",
"! 	c #E0E077",
"~ 	c #DEDE00",
"{ 	c #E0E000",
"] 	c #E3E347",
"^ 	c #E1E11E",
"/ 	c #E1E100",
"( 	c #E6E600",
"_ 	c #B49AA8",
": 	c #A75682",
"< 	c #B64983",
"[ 	c #B94884",
"} 	c #BE4585",
"| 	c #BE4786",
"1 	c #DCDC78",
"2 	c #D7D70C",
"3 	c #D9D900",
"4 	c #DEDE50",
"5 	c #E0E067",
"6 	c #DFDF00",
"7 	c #E3E200",
"8 	c #E5F000",
"9 	c #B3628E",
"0 	c #B94684",
"a 	c #CFCF00",
"b 	c #D0D000",
"c 	c #D3D300",
"d 	c #D9D942",
"e 	c #DBDB07",
"f 	c #DCDC00",
"g 	c #DFDC01",
"h 	c #E3F000",
"i 	c #D3B80E",
"j 	c #C4709D",
"k 	c #BE5E91",
"l 	c #C38DAA",
"m 	c #D4D43B",
"n 	c #D8D85E",
"o 	c #DADA28",
"p 	c #D8D800",
"q 	c #DADA00",
"r 	c #DDDC00",
"s 	c #E1E900",
"t 	c #D5B013",
"u 	c #B70061",
"v 	c #D381AD",
"w 	c #AD4F82",
"x 	c #AF487F",
"y 	c #B70967",
"z 	c #C85190",
"A 	c #D6D62C",
"B 	c #D5D520",
"C 	c #D4D400",
"D 	c #D7D702",
"E 	c #DEE000",
"F 	c #D7EB00",
"G 	c #BD7B56",
"H 	c #AF137B",
"I 	c #A0326D",
"J 	c #940551",
"K 	c #A60056",
"L 	c #B2005F",
"M 	c #B80162",
"N 	c #BF1871",
"O 	c #BE106D",
"P 	c #CB5995",
"Q 	c #DFDFFC",
"R 	c #D2D200",
"S 	c #D5D500",
"T 	c #D7D600",
"U 	c #D7E800",
"V 	c #C4932B",
"W 	c #B0539C",
"X 	c #963867",
"Y 	c #91476F",
"Z 	c #7E003D",
"` 	c #9D0053",
" .	c #AE005D",
"..	c #B60061",
"+.	c #B90062",
"@.	c #BA0060",
"#.	c #BB0868",
"$.	c #C4C4CB",
"%.	c #D2D100",
"&.	c #D3D600",
"*.	c #D7E700",
"=.	c #C8702F",
"-.	c #A8006A",
";.	c #8B5772",
">.	c #700037",
",.	c #92004B",
"'.	c #A60057",
").	c #B2005D",
"!.	c #B80060",
"~.	c #BB0063",
"{.	c #BB0064",
"].	c #B90061",
"^.	c #C9CBD0",
"/.	c #E7C9E1",
"(.	c #D5D448",
"_.	c #CACB00",
":.	c #CECE00",
"<.	c #CFC700",
"[.	c #D0D300",
"}.	c #C5991B",
"|.	c #A65946",
"1.	c #7C004A",
"2.	c #9E7D8E",
"3.	c #75003D",
"4.	c #A20156",
"5.	c #AE0961",
"6.	c #AF0D64",
"7.	c #B21167",
"8.	c #B10260",
"9.	c #B5005D",
"0.	c #BA0061",
"a.	c #BA0063",
"b.	c #CD89B6",
"c.	c #CFC996",
"d.	c #B2CD00",
"e.	c #B91373",
"f.	c #B3005E",
"g.	c #A90E54",
"h.	c #8C1843",
"i.	c #8F215B",
"j.	c #B20056",
"k.	c #CE78A5",
"l.	c #C45E94",
"m.	c #CA71A0",
"n.	c #CB6D9F",
"o.	c #BC377E",
"p.	c #B30060",
"q.	c #B6005E",
"r.	c #CEB2BF",
"s.	c #C3AEC2",
"t.	c #A7005A",
"u.	c #9F0059",
"v.	c #BF4887",
"w.	c #C96B9D",
"x.	c #CC689D",
"y.	c #D178A8",
"z.	c #D489B1",
"A.	c #C3568F",
"B.	c #B10863",
"C.	c #DAE6E0",
"D.	c #B76691",
"E.	c #B02A6F",
"F.	c #BB2B78",
"G.	c #D27BAA",
"H.	c #AC0057",
"I.	c #A94B7D",
"J.	c #CA79A4",
"K.	c #CA639A",
"L.	c #CD679E",
"M.	c #CB6C9F",
"N.	c #C5749F",
"O.	c #B55187",
"P.	c #AB0B61",
"Q.	c #D6D4D5",
"R.	c #B16C91",
"S.	c #9C165E",
"T.	c #A20055",
"U.	c #A70056",
"V.	c #AF0760",
"W.	c #B40160",
"X.	c #BE1C72",
"Y.	c #CE629C",
"Z.	c #C44F8E",
"`.	c #C65D94",
" +	c #BB598E",
".+	c #AD5584",
"++	c #965277",
"@+	c #92245F",
"#+	c #D2D2D2",
"$+	c #D3D3D3",
"%+	c #985177",
"&+	c #850044",
"*+	c #9A0050",
"=+	c #A50056",
"-+	c #B2005E",
";+	c #B50060",
">+	c #BA0062",
",+	c #BD0061",
"'+	c #BF0063",
")+	c #BD0D6B",
"!+	c #BD3A80",
"~+	c #B74B85",
"{+	c #A83D76",
"]+	c #9C2F69",
"^+	c #A01B63",
"/+	c #C3C3C3",
"(+	c #C6C6C6",
"_+	c #A37D92",
":+	c #79003D",
"<+	c #97004E",
"[+	c #A10054",
"}+	c #AA005B",
"|+	c #B0005E",
"1+	c #B40060",
"2+	c #BD0165",
"3+	c #C00468",
"4+	c #BE0166",
"5+	c #B70060",
"6+	c #AD025E",
"7+	c #CACACA",
"8+	c #C1C1C1",
"9+	c #8E1E5A",
"0+	c #9B004C",
"a+	c #AF0F64",
"b+	c #B21267",
"c+	c #AC005A",
"d+	c #AF005D",
"e+	c #B3005F",
"f+	c #B90063",
"g+	c #C00167",
"h+	c #98155B",
"i+	c #CFCFCF",
"j+	c #C2C2C2",
"k+	c #B85288",
"l+	c #B3005C",
"m+	c #C2317F",
"n+	c #B1005E",
"o+	c #AE005C",
"p+	c #AF005E",
"q+	c #B1005F",
"r+	c #B60062",
"s+	c #B70062",
"t+	c #AA005A",
"u+	c #980051",
"v+	c #820044",
"w+	c #BFBFBF",
"x+	c #DA82B1",
"y+	c #B20C64",
"z+	c #BA1C71",
"A+	c #B1005C",
"B+	c #B40061",
"C+	c #B0005D",
"D+	c #9F0055",
"E+	c #8A0049",
"F+	c #71003D",
"G+	c #C8C8C8",
"H+	c #C4C5C4",
"I+	c #E7DCE2",
"J+	c #CF4E92",
"K+	c #880044",
"L+	c #6C0037",
"M+	c #B8156C",
"N+	c #B50061",
"O+	c #94004F",
"P+	c #75003E",
"Q+	c #620034",
"R+	c #C8CFCB",
"S+	c #D0B8C5",
"T+	c #BB136D",
"U+	c #79003A",
"V+	c #B92574",
"W+	c #B2005C",
"X+	c #AD005C",
"Y+	c #AB005B",
"Z+	c #8F004C",
"`+	c #630035",
" @	c #CAC7C8",
".@	c #BE83A2",
"+@	c #870046",
"@@	c #89003F",
"#@	c #B6196C",
"$@	c #AB005A",
"%@	c #970051",
"&@	c #A00056",
"*@	c #91004D",
"=@	c #C296AD",
"-@	c #BC95AA",
";@	c #910952",
">@	c #A00A5A",
",@	c #B31268",
"'@	c #8C004A",
")@	c #A20057",
"!@	c #C30066",
"~@	c #A50A5D",
"{@	c #B891A6",
"]@	c #BAA7B2",
"^@	c #A6085D",
"/@	c #B40A65",
"(@	c #BB347C",
"_@	c #A90059",
":@	c #BE0D6B",
"<@	c #A10055",
"[@	c #B06B91",
"}@	c #AD266E",
"|@	c #AE0056",
"1@	c #AD005B",
"2@	c #B82775",
"3@	c #BB337B",
"      . + @ # $ % & & * & =         - ; > , ' ) ",
"    ! ~ { ] ^ / = $ + ( $         _ : < [   } | ",
"  1 2 3 4 5 ~ 6 { / 7 8           9 0           ",
"  a b c d e f ~ ~ g h i         j k l           ",
"    m n o p q f r s t u         v w x   y z     ",
"    A B C D p 3 E F G H         I J K L M N O P ",
"  Q   R R c S T U V W X       Y Z `  ...+.@.@.#.",
"  $.  a %.R &.*.=.-.        ;.>.,.'.).!.~.{.{.].",
"  ^./.(._.:.<.[.}.|.1.    2.3.4.5.6.7.8.9.0.a.u ",
"    b.c.d.  e.f.g.h.      i.j.  k.l.m.n.o.p.q...",
"    r.s.      t.u.      v.        w.x.y.z.A.B.).",
"    C.D.E.F.          G.H.I.      J.K.L.M.N.O.P.",
"    Q.            R.S.T.U.V.W.X.Y.  Z.`. +.+++@+",
"  #+$+          %+&+*+=+ .-+;+>+,+'+)+!+~+{+]+^+",
"  /+(+        _+:+<+[+}+|+1++.2+3+4+5+6+        ",
"  7+8+        9+0+a+b+c+d+e+f+g+g+{.L [+h+      ",
"  i+j+      k+l+    m+n+o+p+q+r+{.s+t+u+v+      ",
"    w+    x+y+        z+A+B+1+q+q+C+D+E+F+      ",
"    G+H+I+J+K+L+      M+).N+;+1+n+o+O+P+Q+      ",
"      R+S+T+U+          V+W+B+L X+Y+Z+`+        ",
"         @.@+@@@          #@C+$@%@&@*@          ",
"          =@-@;@>@          ,@&@'@)@            ",
"        !@~@{@]@^@/@(@          _@              ",
"        :@t+<@[@}@|@1@2@3@                      "};
