/* XPM */
static char *waterIcon_26[]={
"26 26 63 2",
"   s bg c None"
". 	c #8E2323",
"X 	c #A52A2A",
"o 	c #6B3939",
"O 	c #D11619",
"+ 	c #121212",
"@ 	c #9B7071",
"# 	c #949494",
"$ 	c #A8A8A8",
"% 	c #E0E0E0",
"& 	c #E3E3E3",
"* 	c #CCCCCC",
"= 	c #A6A6A6",
"- 	c #7F7F7F",
"; 	c #DEB887",
": 	c #F5F5F5",
"> 	c #EBEBEB",
", 	c #D6D6D6",
"< 	c #B8B8B8",
"1 	c #8A8A8A",
"2 	c #E8E8E8",
"3 	c #F0F0F0",
"4 	c #E5E5E5",
"5 	c #D4D4D4",
"6 	c #5E5E5E",
"7 	c #DBDBDB",
"8 	c #C9C9C9",
"9 	c #ADADAD",
"0 	c #828282",
"q 	c #575757",
"w 	c #CFCFCF",
"e 	c #F08080",
"r 	c #9C9C9C",
"t 	c #707070",
"y 	c #474747",
"u 	c #D9D9D9",
"i 	c #C2C2C2",
"p 	c #BFBFBF",
"a 	c #B3B3B3",
"s 	c #9E9E9E",
"d 	c #303030",
"f 	c #BABABA",
"g 	c #91535D",
"h 	c #999999",
"j 	c #A1A1A1",
"k 	c #919191",
"l 	c #7A7A7A",
"z 	c #3B3B3B",
"x 	c #ABABAB",
"c 	c #878787",
"v 	c #141414",
"b 	c #0F0F0F",
"n 	c #0A0A0A",
"m 	c #6E6E6E",
"M 	c #6B6B6B",
"N 	c #5C5C5C",
"B 	c #4D4D4D",
"V 	c #383838",
"C 	c #858585",
"Z 	c #3D3D3D",
"A 	c #030303",
"S 	c #363636",
"D 	c #404040",
"                                                    ",
"                                                    ",
"                                                    ",
"                                                    ",
"                                                    ",
"                  . . . . .                         ",
"              X X X X X . . o o                     ",
"            X O O O O X X . . o o                   ",
"            X O O O O X X . . o o +                 ",
"          X X O O O O X . . . X @ # $               ",
"          . X O O X X X . . X % & * = -             ",
"          . X X X X X . . . ; : > , < 1             ",
"        2 X . . . . . . . X : 3 4 5 < 1 6           ",
"        2 , . . . . . . . ; > 4 7 8 9 0 q           ",
"      w 2 : e . . . . . o 8 7 , 8 < r t y           ",
"      < u 4 % @ o o o o o i i p a s 0 q d           ",
"        i w * f g o o o o h j s k l q z             ",
"        s = x s c o v b n o m M N B V               ",
"          C l m q Z v A     Z V S                   ",
"              D S                                   ",
"                                                    ",
"                                                    ",
"                                                    ",
"                                                    ",
"                                                    ",
"                                                    "
};
