/* XPM */
static char * bs_xpm[] = {
"24 24 112 2",
"  	c None",
". 	c #E5E5E5",
"+ 	c #F7F7F7",
"@ 	c #F6F6F6",
"# 	c #E6E6E6",
"$ 	c #ABABAB",
"% 	c #C9CACA",
"& 	c #EAEAEA",
"* 	c #EBEBEB",
"= 	c #DADADA",
"- 	c #CDB4B4",
"; 	c #B0ACAC",
"> 	c #C4C6C6",
", 	c #CFCFCF",
"' 	c #C1C1C1",
") 	c #E67070",
"! 	c #EE7474",
"~ 	c #F17474",
"{ 	c #ED7171",
"] 	c #DD6868",
"^ 	c #C88E8E",
"/ 	c #D7B8B8",
"( 	c #C0A9A9",
"_ 	c #969494",
": 	c #A3A4A4",
"< 	c #DB6B6B",
"[ 	c #E87070",
"} 	c #EF7474",
"| 	c #F27E7E",
"1 	c #EC7171",
"2 	c #D26767",
"3 	c #B78585",
"4 	c #AE9595",
"5 	c #948686",
"6 	c #C96262",
"7 	c #D76969",
"8 	c #E26C6C",
"9 	c #E77272",
"0 	c #F09A9A",
"a 	c #F09D9D",
"b 	c #EA7676",
"c 	c #E16969",
"d 	c #B95C5C",
"e 	c #936363",
"f 	c #C35F5F",
"g 	c #D26666",
"h 	c #DA6969",
"i 	c #DF6E6E",
"j 	c #E68282",
"k 	c #E68484",
"l 	c #E27070",
"m 	c #DD6B6B",
"n 	c #CB6262",
"o 	c #B65454",
"p 	c #BC5C5C",
"q 	c #CD6363",
"r 	c #D56767",
"s 	c #DB6A6A",
"t 	c #DE6B6B",
"u 	c #DA6A6A",
"v 	c #B75A5A",
"w 	c #B45757",
"x 	c #C35E5E",
"y 	c #CD6464",
"z 	c #D36767",
"A 	c #D46666",
"B 	c #D16666",
"C 	c #C96161",
"D 	c #BB5B5B",
"E 	c #AF5656",
"F 	c #AE5454",
"G 	c #B85959",
"H 	c #C25E5E",
"I 	c #C86161",
"J 	c #CA6262",
"K 	c #C05B5B",
"L 	c #B15353",
"M 	c #A55050",
"N 	c #AF5555",
"O 	c #B85A5A",
"P 	c #B65858",
"Q 	c #AB5050",
"R 	c #9E5050",
"S 	c #8F4D4D",
"T 	c #884040",
"U 	c #AB5454",
"V 	c #AB5353",
"W 	c #A75050",
"X 	c #964949",
"Y 	c #9B6464",
"Z 	c #D6B5B5",
"` 	c #D3B2B2",
" .	c #9E4848",
"..	c #8C4D4D",
"+.	c #B19393",
"@.	c #D8C0C0",
"#.	c #DED2D2",
"$.	c #D3CBCB",
"%.	c #AB9C9C",
"&.	c #C9C4C4",
"*.	c #EAECEC",
"=.	c #EBECEC",
"-.	c #DCDCDC",
";.	c #D0D1D1",
">.	c #E9E9E9",
",.	c #D7D7D7",
"'.	c #C3C3C3",
").	c #D3D3D3",
"!.	c #D2D2D2",
"~.	c #B5B5B5",
"{.	c #BABABA",
"].	c #B9B9B9",
"                                                ",
"                                                ",
"                                                ",
"                                                ",
"                            . + @ #             ",
"                          $ % & * =             ",
"                          - ; > , '             ",
"              ) ! ~ { ] ^ / ( _ : $             ",
"            < [ } | | 1 2 3 4 5                 ",
"          6 7 8 9 0 a b c d e                   ",
"          f g h i j k l m n o                   ",
"          p q r s m t u r 6 v                   ",
"          w x y z A A B C D E                   ",
"          F G H I J I K L M                     ",
"            N w O P Q R S T                     ",
"            U V W X Y Z `                       ",
"                 ...+.@.#.$.                    ",
"                    %.&.*.=.-.                  ",
"                      ;.& >.,.                  ",
"                      '.).!.'                   ",
"                      ~.{.].                    ",
"                                                ",
"                                                ",
"                                                "};
